<svg xmlns="http://www.w3.org/2000/svg" viewBox="0 0 256 256"><defs><linearGradient id="a" x1="221.467" x2="34.533" y1="277.579" y2="-21.579" gradientTransform="matrix(1 0 0 -1 0 256)" gradientUnits="userSpaceOnUse"><stop offset="0" stop-color="#1066b0"/><stop offset="1" stop-color="#7c3b95"/></linearGradient></defs><path d="M0 0h256v256H0V0Z" style="fill:url(#a)"/><path d="M220.073 78.013h-185a7.5 7.5 0 0 0-7.5 7.5v85a7.5 7.5 0 0 0 7.5 7.5h185a7.5 7.5 0 0 0 7.5-7.5v-85a7.5 7.5 0 0 0-7.5-7.5Zm-119.622 80h-7.062a3.75 3.75 0 0 1-3.599-2.694l-2.901-9.893H68.175l-2.83 9.87a3.75 3.75 0 0 1-3.604 2.717h-7.044c-2.568 0-4.377-2.524-3.55-4.956l17.843-52.5a3.75 3.75 0 0 1 3.55-2.544h10.068a3.75 3.75 0 0 1 3.55 2.544l17.844 52.5c.826 2.432-.982 4.956-3.551 4.956Zm114.622 7.5h-87.5v-75h87.5v75Zm-134.982-43.5 3.357 11.665H71.616l3.44-11.665c1.091-3.776 2.434-10.321 2.434-10.321h.168s1.343 6.545 2.433 10.321Zm59.982-6.5v-5a3.75 3.75 0 0 1 3.75-3.75h20v-5a3.75 3.75 0 0 1 3.75-3.75h5a3.75 3.75 0 0 1 3.75 3.75v5h20a3.75 3.75 0 0 1 3.75 3.75v5a3.75 3.75 0 0 1-3.75 3.75h-4.337c-2.236 6.366-6.13 12.958-11.487 19.386-.44.528-.889 1.05-1.343 1.567 2.775 2.445 5.646 4.662 8.516 6.54a3.745 3.745 0 0 1 1.2 4.994l-2.488 4.354c-1.072 1.875-3.495 2.45-5.31 1.278-3.868-2.497-7.492-5.332-10.824-8.324a94.005 94.005 0 0 1-11.237 8.38c-1.798 1.14-4.187.528-5.243-1.32l-2.481-4.344c-.989-1.729-.46-3.941 1.22-5.01a80.869 80.869 0 0 0 8.978-6.633 97.174 97.174 0 0 1-7.336-9.562 3.754 3.754 0 0 1 1.188-5.316l4.295-2.564a3.743 3.743 0 0 1 5.029 1.123 80.912 80.912 0 0 0 5.709 7.485c3.363-3.94 6.126-8.034 8.081-12.033h-34.63a3.75 3.75 0 0 1-3.75-3.75v-.001Z" style="fill:#fff"/></svg>